PathFileType	4	(X/Y/Z)	C:\Users\dbl\Desktop\20210112(1)\20210112\bx_y_10_502.trc
DataRate	CameraRate	NumFrames	NumMarkers	Units	OrigDataRate	OrigDataStartFrame	OrigNumFrames
50.00	50.00	       4	43	mm	50.00	437	       499
Frame#	Time	Top.Head			R.Acromium			L.Acromium			Sternum			R.ASIS			L.ASIS			V.Sacral			R.Thigh.Upper			R.Thigh.Front			R.Thigh.Rear			R.Knee.Lat			R.Knee.Med			R.Shank.Upper			R.Shank.Front			R.Shank.Rear			R.Ankle.Lat			R.Midfoot.Lat			R.Toe.Lat			R.Toe.Tip			R.Toe.Med			R.Ankle.Med			R.Midfoot.Sup			R.Heel			L.Thigh.Upper			L.Thigh.Front			L.Thigh.Rear			L.Knee.Lat			L.Knee.Med			L.Shank.Upper			L.Shank.Front			L.Shank.Rear			L.Ankle.Lat			L.Midfoot.Lat			L.Toe.Lat			L.Toe.Tip			L.Toe.Med			L.Ankle.Med			L.Midfoot.Sup			L.Heel			origin1 front left			origin2 front right			origin 3 back right			origin 4 back leftt			
		X1	Y1	Z1	X2	Y2	Z2	X3	Y3	Z3	X4	Y4	Z4	X5	Y5	Z5	X6	Y6	Z6	X7	Y7	Z7	X8	Y8	Z8	X9	Y9	Z9	X10	Y10	Z10	X11	Y11	Z11	X12	Y12	Z12	X13	Y13	Z13	X14	Y14	Z14	X15	Y15	Z15	X16	Y16	Z16	X17	Y17	Z17	X18	Y18	Z18	X19	Y19	Z19	X20	Y20	Z20	X21	Y21	Z21	X22	Y22	Z22	X23	Y23	Z23	X24	Y24	Z24	X25	Y25	Z25	X26	Y26	Z26	X27	Y27	Z27	X28	Y28	Z28	X29	Y29	Z29	X30	Y30	Z30	X31	Y31	Z31	X32	Y32	Z32	X33	Y33	Z33	X34	Y34	Z34	X35	Y35	Z35	X36	Y36	Z36	X37	Y37	Z37	X38	Y38	Z38	X39	Y39	Z39	X40	Y40	Z40	X41	Y41	Z41	X42	Y42	Z42	X43	Y43	Z43	

437	8.720	-728.40863	97.46547	1845.69617	-686.93463	-75.35336	1538.26855	-699.07062	284.48041	1538.10535	-604.25208	102.79263	1432.76758	-568.07855	-10.01540	1049.54199	-570.49182	218.06042	1068.47778	-771.57184	85.59161	1053.76611	-623.73682	-71.25411	868.74902	-564.19623	-2.97581	801.64056	-672.22253	-51.91909	717.72601	-684.00238	-28.66989	615.86847	-679.44666	80.30346	577.85229	-703.85712	-25.30586	567.50012	-658.45923	17.90767	518.61224	-754.39508	-33.99635	490.85425	-767.82074	-4.23360	208.51157	-664.77594	-67.50294	162.81781	-623.95068	-78.68832	158.65915	-560.44330	-39.91601	163.32591	-603.33575	19.19501	166.96466	-716.24847	78.38840	216.29596	-675.47644	54.69219	158.12730	-794.55444	56.44330	175.15021	-626.54486	276.82938	876.86493	-570.72150	211.35478	814.01440	-677.24542	266.61798	747.99957	-710.16602	245.80064	645.96875	-682.50372	138.80894	574.80133	-719.91675	241.36122	579.00262	-668.59497	201.54013	532.99567	-764.22974	250.56854	506.76459	-770.77582	221.85445	206.13643	-666.31903	298.69916	160.59839	-628.90198	306.48151	161.63739	-560.48199	261.35098	165.03214	-594.41919	222.34412	173.22301	-711.05328	151.35176	216.26117	-675.79236	172.14964	156.65833	-796.45728	171.80171	184.29680	-528.05884	304.40231	146.67572	-517.90155	-72.27780	142.72229	-876.08472	-78.65096	141.56584	-882.51978	296.11670	144.69928	
438	8.740	-728.96625	97.00391	1845.53247	-686.97369	-75.90932	1538.03064	-699.13263	284.04553	1538.01648	-604.13245	102.23271	1432.76392	-568.06348	-10.23205	1049.41846	-570.47662	217.83246	1068.41626	-771.62012	85.25111	1053.69421	-623.70178	-71.43590	868.63757	-564.07556	-3.16813	801.70776	-672.30383	-51.80339	717.43384	-683.95892	-28.88351	615.90741	-679.36646	80.18587	577.88904	-703.82306	-25.39415	567.50665	-658.42975	17.83427	518.55951	-754.40863	-34.03588	490.83405	-767.82294	-4.24163	208.48119	-664.79297	-67.45958	162.82425	-623.90149	-78.70789	158.73619	-560.44659	-39.89595	163.32108	-603.32281	19.16453	166.97176	-716.24304	78.35595	216.23868	-675.49646	54.70785	158.11778	-794.58282	56.46523	175.14766	-626.53967	276.67484	876.89783	-570.65491	211.25331	814.05353	-677.20300	266.43701	748.01544	-710.08295	245.62178	645.86078	-682.39801	138.62732	574.87366	-719.84149	241.20882	578.94922	-668.54388	201.51132	532.95538	-764.18091	250.48254	506.71930	-770.75739	221.82677	206.11629	-666.30017	298.73636	160.59682	-628.90607	306.47681	161.65671	-560.46570	261.33109	165.03134	-594.43451	222.35112	173.20425	-711.05579	151.34866	216.25662	-675.82660	172.17868	156.62769	-796.47748	171.77208	184.29648	-528.05383	304.37131	146.64822	-517.94238	-72.22200	142.71960	-876.08038	-78.62371	141.57706	-882.51276	296.11273	144.69058	
439	8.760	-729.29840	96.56902	1845.41309	-687.00989	-76.45406	1537.86853	-699.26093	283.51489	1538.05322	-604.03412	101.70742	1432.70032	-568.12341	-10.42101	1049.33167	-570.49146	217.56369	1068.44507	-771.72504	84.84694	1053.69006	-623.78131	-71.64563	868.59906	-564.12494	-3.36199	801.69995	-672.65216	-51.69271	717.11304	-684.11206	-29.20441	616.01105	-679.36951	79.96410	577.90692	-703.96765	-25.57528	567.51147	-658.44183	17.71926	518.56390	-754.64771	-34.21306	490.85626	-767.82184	-4.24808	208.44766	-664.77747	-67.43525	162.84161	-623.86914	-78.72018	158.76866	-560.44293	-39.89569	163.31316	-603.33484	19.16660	166.98262	-716.26062	78.32253	216.25317	-675.49951	54.70939	158.11456	-794.60059	56.47960	175.14117	-626.59021	276.47073	876.92017	-570.70184	211.10870	814.10327	-677.34790	266.29333	748.11102	-710.08679	245.47565	645.80060	-682.41644	138.40970	574.94946	-719.82605	241.07950	578.89740	-668.53986	201.46516	532.94867	-764.16498	250.37892	506.66083	-770.74249	221.80060	206.09511	-666.29169	298.74353	160.62335	-628.89471	306.46292	161.65956	-560.46185	261.30463	165.04092	-594.43860	222.35538	173.21188	-711.06342	151.35509	216.26624	-675.86945	172.22052	156.59357	-796.49329	171.73079	184.29070	-528.04895	304.34735	146.61031	-517.93781	-72.16495	142.72972	-876.06702	-78.57870	141.58838	-882.48914	296.11249	144.69220	
440	8.780	-729.45947	96.17359	1845.35339	-687.02820	-76.97324	1537.74658	-699.49347	282.86884	1538.16260	-604.00592	101.24095	1432.59644	-568.23468	-10.57212	1049.27502	-570.52496	217.27698	1068.58801	-771.86182	84.45504	1053.75024	-623.94165	-71.90630	868.62030	-564.31604	-3.55313	801.60156	-673.14044	-51.66631	716.83716	-684.35730	-29.54226	616.10352	-679.57385	79.69199	577.87598	-704.23859	-25.86461	567.49261	-658.54303	17.56648	518.59125	-755.15643	-34.60631	490.91028	-767.81390	-4.27700	208.39609	-664.77441	-67.44102	162.84946	-623.87415	-78.70593	158.73972	-560.43951	-39.88871	163.32069	-603.36218	19.19853	166.98468	-716.28998	78.30405	216.31978	-675.49493	54.70240	158.11777	-794.59985	56.47149	175.13458	-626.71783	276.22095	876.94531	-570.86688	210.94518	814.16418	-677.65607	266.17926	748.18701	-710.13525	245.36436	645.79980	-682.51843	138.16953	574.99054	-719.84045	240.99622	578.85608	-668.55212	201.35724	532.94513	-764.18604	250.25212	506.63986	-770.73004	221.77730	206.06837	-666.30072	298.72272	160.66693	-628.87103	306.44388	161.65094	-560.46033	261.28476	165.05598	-594.43427	222.36302	173.23711	-711.07605	151.35931	216.27394	-675.90796	172.25636	156.56201	-796.50452	171.69614	184.28790	-528.03717	304.34790	146.58203	-517.90045	-72.12531	142.73613	-876.05823	-78.54868	141.59750	-882.47168	296.12115	144.69865	
